<svg id="Layer_1" data-name="Layer 1" xmlns="http://www.w3.org/2000/svg" viewBox="0 0 721.3 98.46"><defs><style>.cls-1{fill:#3095b4;}.cls-2{fill:#005172;}</style></defs><title>dnb_wordmark</title><path class="cls-1" d="M242.3,329.25c2.54.86,5.25,1.39,7.59,2.63,7.77,4.13,11.84,10.77,12.17,19.55.27,7.25-2.57,13.25-7.92,18.11-1.4,1.27-2.74,2.6-4,3.77l-7.6-7.12c2-2.08,4-3.94,5.83-6a12.31,12.31,0,0,0-17.66-17.12,68.59,68.59,0,0,0-4.53,5.2l-8.33-7.48c5.18-5.31,10.1-10.39,17.67-11.35.12,0,.23-.15.35-.23Z" transform="translate(-35.7 -329.25)"/><path class="cls-1" d="M268,358c7.1.83,16.53,7.51,19.78,17.4,3.47,10.56.35,22.44-7.66,29l-7.33-7c1.56-2.28,3.26-4.18,4.32-6.4a16.42,16.42,0,0,0-7.92-21.83,1.79,1.79,0,0,1-1.21-2C268,364.19,268,361.1,268,358Z" transform="translate(-35.7 -329.25)"/><path class="cls-1" d="M757,415.37a14.39,14.39,0,0,1-10.18,3.81c-5.55-.08-9.47-3.24-10.44-8.73a27.45,27.45,0,0,1-.38-4.62c0-7.17,0-14.35,0-21.52,0-.33,0-.67,0-1.15h-6.21V377h6.16V348h7v28.93h11.46V383H743.05c0,.49-.09.82-.09,1.14,0,7.66,0,15.32.08,23a9.75,9.75,0,0,0,.37,2.57c.87,3.07,4.15,4.21,7.45,2.58a19.8,19.8,0,0,0,2.21-1.44L757,414.5Z" transform="translate(-35.7 -329.25)"/><path class="cls-1" d="M485.5,383.68V348h6.92V418.2h-6.84v-6.78a37.4,37.4,0,0,1-3.68,3.88c-4.08,3.23-8.85,4.12-13.93,3.69-9.11-.78-16.17-7.72-17.82-17.17-1.6-9.17,1.91-19.19,10.72-23.53,6.93-3.42,14-3.21,20.5,1.2C482.92,380.56,484.08,382.21,485.5,383.68Zm-14.06,29.13a13.56,13.56,0,0,0,7.22-1.83c7.27-4.1,9.13-14.66,5-21.73-2.9-4.92-7.43-6.89-13-6.78a13.29,13.29,0,0,0-12.12,8.18,18.78,18.78,0,0,0-1.19,9.22C458.1,407.58,463.79,413.07,471.44,412.81Z" transform="translate(-35.7 -329.25)"/><path class="cls-1" d="M318.81,411.49v6.69h-6.89V347.95h6.84V384c.7-.93,1.13-1.53,1.6-2.11,3.39-4.14,8-5.64,13.1-5.79,10.58-.32,18.85,6.57,20.57,17.16,1.25,7.68-.34,14.65-6,20.31-6.88,6.92-19.56,7.45-26.33,1.17C320.73,413.82,319.89,412.71,318.81,411.49Zm28.4-13.94c-.15-1.19-.23-2.4-.45-3.58-.94-5.07-3.6-8.85-8.56-10.59-5.22-1.83-10.23-1.24-14.59,2.34-4.72,3.88-6.28,10.8-4.23,17.39,3.5,11.26,17.76,12.29,23.74,5.61A16.48,16.48,0,0,0,347.21,397.55Z" transform="translate(-35.7 -329.25)"/><path class="cls-1" d="M630.05,399.92c.69,7.54,5.91,12.67,13.75,13.12,5.52.31,10.42-1.17,14.3-5.39l4.17,4.54a19.55,19.55,0,0,1-10.78,6.21c-6.72,1.47-13.2.9-19.13-2.79a19.62,19.62,0,0,1-9.42-15.84c-.63-7.78,1.94-14.37,8.17-19.3,8.15-6.45,20.87-5.74,27.84,1.57a22,22,0,0,1,5.82,13.57c.13,1.38.17,2.77.26,4.3Zm27.64-5.34c0-7.64-6.18-12.78-15-12.33a13.09,13.09,0,0,0-12.37,12.33Z" transform="translate(-35.7 -329.25)"/><path class="cls-1" d="M718.89,400h-35c.06,6.18,5.14,11.82,11.38,12.8s12-.31,16.73-5.15l4,4.65a17.9,17.9,0,0,1-6.84,4.87,25.59,25.59,0,0,1-20,0c-8.14-3.37-12.81-11.09-12.5-20.22.35-10.28,6.89-18.29,16.95-20.36,10.91-2.25,21.74,3.23,24.42,15.85C718.49,394.83,718.58,397.3,718.89,400ZM684,394.56h27.38c-.09-7.82-6.06-12.79-15.06-12.32A13.07,13.07,0,0,0,684,394.56Z" transform="translate(-35.7 -329.25)"/><path class="cls-1" d="M429.58,394.06a17.06,17.06,0,0,0-1.19-7.32c-1.34-3-3.82-4.28-6.91-4.52-5.31-.41-9.82,1.19-13.17,5.51a2.54,2.54,0,0,1-.43.33l-4.24-3.85a15.88,15.88,0,0,1,5.19-5,21.2,21.2,0,0,1,16.89-2.39c5.85,1.54,9,5.75,10,11.56a25.39,25.39,0,0,1,.38,4.47c0,8.1,0,16.19,0,24.29,0,.33,0,.66-.07,1.08h-6.45v-4c-.23,0-.41,0-.47.08-4,4.57-9.33,5.08-14.87,4.73a20.39,20.39,0,0,1-4.94-1c-5.1-1.65-8.11-5.62-8.19-10.58-.1-6.12,2.39-10.19,7.8-12a26.81,26.81,0,0,1,7.22-1.26c3.87-.2,7.75-.05,11.63-.05Zm.12,5.36c-4.76,0-9.16-.05-13.56,0a13.36,13.36,0,0,0-3.66.74,5.74,5.74,0,0,0-4.38,5.62c-.15,3,1.1,5.28,3.8,6.36a15.3,15.3,0,0,0,12.88-.51,7.59,7.59,0,0,0,4.51-5.35A54.47,54.47,0,0,0,429.71,399.42Z" transform="translate(-35.7 -329.25)"/><path class="cls-1" d="M555.85,377V348h7.05v29h11.36V383H563.1a8.79,8.79,0,0,0-.15,1.09c0,7.75,0,15.51,0,23.26,0,4.69,3.36,6.89,7.62,5.05a21.39,21.39,0,0,0,2.73-1.72l1.82,2.06,2,2.37a28.32,28.32,0,0,1-2.65,2.05,14,14,0,0,1-11.17,1.56c-4.93-1.33-7.2-5.54-7.35-10.79-.21-7.75-.1-15.51-.13-23.26,0-.47,0-.95,0-1.56h-6.25V377Z" transform="translate(-35.7 -329.25)"/><path class="cls-1" d="M505.7,409.56l5.36-3.09a40,40,0,0,0,4.83,4.64c3.8,2.61,8,2.83,12.33,1.29a5.29,5.29,0,0,0,3.74-5.18,5.1,5.1,0,0,0-3.61-5.1c-2.7-1-5.52-1.71-8.21-2.76-2.5-1-5.2-1.84-7.27-3.45a10.67,10.67,0,0,1,2.36-18.34c6.26-2.85,15.58-1.82,20.52,4.66.14.19.27.38.45.64l-4.84,3.76-1-1.18a10.74,10.74,0,0,0-11.68-2.87,4.77,4.77,0,0,0-3.34,4.48,4.31,4.31,0,0,0,2.76,4.52c3,1.17,6.14,2,9.11,3.19a36,36,0,0,1,7.72,3.85c5.82,4.25,5,15.13-2.37,18.65-6.8,3.26-17.81,2.38-23.64-3.71C507.78,412.38,506.85,411,505.7,409.56Z" transform="translate(-35.7 -329.25)"/><path class="cls-1" d="M376.14,418.23H369V377.08h7v5.42a12.34,12.34,0,0,1,8.63-6c3.59-.57,7.12-.41,10.38,1.79l-2.72,6.13A11.43,11.43,0,0,0,385,383a9.5,9.5,0,0,0-8,7.08,20,20,0,0,0-.89,5.68C376.09,403.17,376.14,410.62,376.14,418.23Z" transform="translate(-35.7 -329.25)"/><path class="cls-1" d="M591.47,377h6.94v5.71a12.08,12.08,0,0,1,9.28-6.34c3.42-.41,6.72-.19,9.76,1.87l-2.72,6.12a11,11,0,0,0-7-1.48,10,10,0,0,0-8.65,8.38,27.94,27.94,0,0,0-.6,5.46c-.07,6.59,0,13.18,0,19.78,0,.53,0,1.05,0,1.68h-7Z" transform="translate(-35.7 -329.25)"/><path class="cls-2" d="M228.31,427.71c-1.18-.29-2.38-.52-3.55-.88-10.51-3.23-17.25-10.09-19.41-21S207,386.41,215,379.28c1.63-1.44,3.18-3,4.69-4.56.69-.72,1.13-.63,1.76,0,2.11,2.27,4.26,4.5,6.52,6.87-2.27,2.17-4.54,4.37-6.84,6.53a17,17,0,0,0-5.44,9.63,16.27,16.27,0,0,0,12.17,18.81,15.34,15.34,0,0,0,14.55-3.46c4-3.62,7.86-7.45,11.87-11.27-2.64-2.77-5.19-5.47-7.77-8.14Q232.29,379,218,364.31c-2.53-2.61-5-5.26-7.57-7.84a4.18,4.18,0,0,1-1.39-3.3c.1-3.92,0-7.85,0-11.78,0-.47,0-.93,0-1.89l71.21,73.9-7.17,7.92L261.69,409.5c-3,2.87-5.83,5.66-8.69,8.46-3.25,3.19-6.63,6.25-11,7.82-2.18.79-4.47,1.29-6.71,1.92Z" transform="translate(-35.7 -329.25)"/><path class="cls-2" d="M35.7,393.82c1-2.63,1.58-5.47,3-7.86,4.15-7.2,10.66-10.41,18.88-9.84a16.38,16.38,0,0,1,12.87,7.56c.18.27.38.52.77,1V347.93h7.11V418.2h-7V412a45,45,0,0,1-5.16,4.46c-3.87,2.47-8.24,3-12.77,2.55-9.64-1-16.29-9-17.42-17.44,0-.06-.14-.1-.22-.15Q35.7,397.6,35.7,393.82ZM56,412.76c6.51,0,10.79-2.26,13.57-7.14a16.58,16.58,0,0,0,1.83-10.22,14.12,14.12,0,0,0-16.11-12.86,12.56,12.56,0,0,0-9.21,5c-2.87,3.91-3.52,8.26-2.88,13C44.15,407.42,49.52,413,56,412.76Z" transform="translate(-35.7 -329.25)"/><path class="cls-2" d="M146.36,377h7.17v6.39a13.73,13.73,0,0,1,8.57-6.58c5.16-1.34,10.22-1.29,14.83,1.83a13.44,13.44,0,0,1,6.2,10.91c.29,9.48.09,19,.09,28.58h-7c0-.48,0-1,0-1.5,0-8,0-16.09,0-24.14a10.06,10.06,0,0,0-2.79-7.21,9.36,9.36,0,0,0-6.68-2.61c-5.3-.24-10.15,2.06-12,6.93a15.21,15.21,0,0,0-1.1,5.15c-.12,7.75-.05,15.51-.05,23.38h-7.18Z" transform="translate(-35.7 -329.25)"/><path class="cls-2" d="M130.19,377.05v41.13H123v-5.8a15,15,0,0,1-8.32,6c-5.24,1.37-10.4,1.42-15.1-1.77a13.6,13.6,0,0,1-6.22-10.93c-.38-9.34-.28-18.69-.37-28a4.32,4.32,0,0,1,.09-.61h7.18q0,.77,0,1.54c0,8-.06,15.9.05,23.85a14.68,14.68,0,0,0,1.11,5.16c1.49,3.69,4.65,4.89,8.38,5,4.72.15,9.48-1.49,11.75-6.48a14.78,14.78,0,0,0,1.34-5.67c.15-7.75.06-15.51.06-23.37Z" transform="translate(-35.7 -329.25)"/></svg>